<!--
  - Copyright (c) 2022.  Botts Innovative Research, Inc.
  - All Rights Reserved
  -
  - opensensorhub/osh-viewer is licensed under the
  -
  - Mozilla Public License 2.0
  - Permissions of this weak copyleft license are conditioned on making available source code of licensed
  - files and modifications of those files under the same license (or in certain cases, one of the GNU licenses).
  - Copyright and license notices must be preserved. Contributors provide an express grant of patent rights.
  - However, a larger work using the licensed work may be distributed under different terms and without
  - source code for files added in the larger work.
  -
  -->

<svg id="target" data-name="target" xmlns="http://www.w3.org/2000/svg" viewBox="0 0 42.32 42.32" fill="white">
    <path d="M42.32,20.16H38.11A17,17,0,0,0,22.16,4.21V0h-2V4.21a17,17,0,0,0-15.95,16H0v2H4.21a17,17,0,0,0,16,16v4.21h2V38.11a17,17,0,0,0,16-15.95h4.21Zm-6.21,0h-4a11,11,0,0,0-9.95-9.95v-4A15,15,0,0,1,36.11,20.16Zm-6,2a9,9,0,0,1-7.94,7.94V25h-2v5.1a9,9,0,0,1-7.94-7.94h5.1v-2h-5.1a9,9,0,0,1,7.94-7.94v5.1h2v-5.1a9,9,0,0,1,7.94,7.94H25v2ZM20.16,6.21v4a11,11,0,0,0-9.95,10h-4A15,15,0,0,1,20.16,6.21Zm-13.95,16h4a11,11,0,0,0,10,10v4A15,15,0,0,1,6.21,22.16Zm16,14v-4a11,11,0,0,0,10-9.95h4A15,15,0,0,1,22.16,36.11Z"/>
</svg>